<?xml version="1.0" standalone="no"?>
<!DOCTYPE svg PUBLIC "-//W3C//DTD SVG 20010904//EN"
 "http://www.w3.org/TR/2001/REC-SVG-20010904/DTD/svg10.dtd">
<svg version="1.0" xmlns="http://www.w3.org/2000/svg"
 width="910.000000pt" height="548.000000pt" viewBox="0 0 910.000000 548.000000"
 preserveAspectRatio="xMidYMid meet">

<g transform="translate(0.000000,548.000000) scale(0.100000,-0.100000)"
fill="#000000" stroke="none">
<path d="M1256 4934 c-236 -19 -430 -35 -432 -37 -3 -3 -74 -4132 -74 -4301
l0 -76 270 0 c149 0 270 1 271 3 0 1 15 525 33 1164 18 640 35 1166 39 1169 6
6 226 -63 239 -75 4 -3 80 -508 169 -1121 88 -613 162 -1116 164 -1118 5 -5
507 17 513 23 5 5 53 355 238 1738 l68 509 58 29 58 29 1 -32 c0 -18 32 -548
72 -1178 l72 -1145 65 -9 c36 -5 180 -5 320 -1 l255 7 18 92 c22 116 23 398 2
1156 -8 300 -20 856 -25 1235 -6 438 -19 889 -35 1235 -14 300 -25 561 -25
581 l0 36 -97 11 c-54 7 -291 35 -526 63 -236 28 -430 49 -431 47 -2 -2 -71
-412 -155 -913 -84 -500 -153 -910 -154 -911 -1 -1 -19 -4 -39 -7 -36 -5 -37
-5 -42 31 -3 20 -51 406 -106 857 -55 451 -102 834 -105 851 -5 28 -13 35 -80
63 -90 37 -54 38 -599 -5z"/>
<path d="M6725 4896 l-350 -31 -72 -620 c-133 -1151 -118 -927 -155 -2377 -17
-708 -28 -1291 -24 -1295 4 -4 230 -9 503 -11 l495 -4 -6 84 c-11 141 -67
1220 -64 1223 7 5 592 34 596 30 3 -3 18 -301 33 -663 15 -361 28 -658 28
-658 1 -1 20 -8 44 -17 32 -13 108 -18 337 -25 162 -6 296 -9 296 -8 4 4 -212
2397 -250 2766 -25 245 -66 648 -92 895 -45 449 -45 450 -90 591 l-44 141
-197 6 c-378 13 -616 7 -988 -27z m593 -867 c141 -39 259 -72 261 -74 5 -5 53
-1407 48 -1411 -2 -2 -129 -7 -283 -10 l-279 -7 -29 66 -28 67 5 467 c4 345 9
500 21 588 8 66 16 180 16 253 0 72 2 132 5 132 3 0 121 -32 263 -71z"/>
<path d="M3958 4722 c-15 -187 -14 -213 18 -920 l32 -727 -28 -655 c-46 -1049
-46 -951 -3 -1455 l38 -440 40 0 c22 0 294 6 605 13 485 12 610 11 885 -1 176
-8 322 -13 324 -11 2 2 6 192 9 424 l5 420 -169 0 c-93 0 -341 7 -551 17
l-383 17 0 196 c0 108 -3 393 -7 632 l-6 435 29 7 c16 3 234 17 484 31 250 14
457 29 461 33 25 27 39 122 45 296 l7 189 -389 -7 c-214 -3 -438 -9 -497 -13
l-109 -6 8 59 c10 76 10 451 0 528 l-8 59 144 -6 c194 -9 593 -25 815 -32
l181 -6 8 88 c10 114 10 767 0 904 l-8 107 -71 8 c-40 5 -482 9 -983 9 l-911
0 -15 -193z"/>
</g>
</svg>
